<svg width="212" height="43" viewBox="0 0 212 43" fill="none" xmlns="http://www.w3.org/2000/svg">
<path fill-rule="evenodd" clip-rule="evenodd" d="M11.9016 7.15918H17.6125V9.56104C20.6858 10.2494 23.3254 12.0856 25.0577 14.5961L27.8355 13.8433L29.3293 19.3554L27.1236 19.9532C27.1944 20.4876 27.2309 21.0329 27.2309 21.5867C27.2309 23.5961 26.75 25.4931 25.8971 27.169L28.4529 29.7103L24.4263 33.7601L22.1858 31.5324C20.8425 32.5171 19.2923 33.2362 17.6125 33.6124V36.0143H11.9016V33.5411C10.3915 33.1626 8.99194 32.5055 7.76068 31.6276L4.65983 33.4179L1.80437 28.4721L3.95051 27.233C3.07707 25.5415 2.58384 23.6217 2.58384 21.5867C2.58384 20.9812 2.62752 20.3858 2.7119 19.8036L0 18.2379L2.85545 13.2921L4.85991 14.4494C6.53504 12.0955 9.01665 10.3554 11.9016 9.63236V7.15918Z" fill="url(#paint0_linear_1203_1121)"/>
<rect x="6.61261" y="20.6016" width="15.8211" height="4.14116" fill="white"/>
<rect x="8.5155" y="18.5811" width="3.69686" height="3.16926" fill="white"/>
<rect x="16.7033" y="18.5811" width="3.69686" height="3.16926" fill="white"/>
<path d="M50.2048 27.6347C49.1193 27.4866 48.2558 26.6232 48.1078 25.5377V13.4737H45.0239V25.2416C45.0239 26.1051 45.2213 26.9192 45.5914 27.6593C46.1094 28.7449 46.9976 29.633 48.0831 30.1758C48.8232 30.5458 49.6374 30.7432 50.5008 30.7432H59.2589V27.6593L50.2048 27.6347ZM66.3828 16.5329H78.9895V13.449H66.3828C63.817 13.449 61.7447 15.5461 61.7447 18.1118V26.0558C61.7447 28.6215 63.817 30.7185 66.3828 30.7185H78.9895V27.6347H66.3828C65.5193 27.6347 64.8038 26.9192 64.8038 26.0558V22.7992H75.9056V19.7154H64.8038V18.1118C64.8038 17.2483 65.5193 16.5329 66.3828 16.5329ZM88.7373 16.5329H97.372V13.449H88.7373C83.9758 13.449 80.1025 17.3223 80.1025 22.0838C80.1025 26.8452 83.9758 30.7185 88.7373 30.7185H97.372V21.245H88.7373V24.3288H94.2882V27.6347H88.7373C85.6781 27.6347 83.1864 25.1429 83.1864 22.0838C83.1864 19.0246 85.6781 16.5329 88.7373 16.5329ZM107.852 13.449C103.091 13.449 99.2175 17.3223 99.2175 22.0838C99.2175 26.8452 103.091 30.7185 107.852 30.7185C112.614 30.7185 116.487 26.8452 116.487 22.0838C116.487 17.3223 112.614 13.449 107.852 13.449ZM107.852 27.6347C104.793 27.6347 102.301 25.1429 102.301 22.0838C102.301 19.0246 104.793 16.5329 107.852 16.5329C110.911 16.5329 113.403 19.0246 113.403 22.0838C113.403 25.1429 110.911 27.6347 107.852 27.6347ZM130.031 24.1068V21.0229H118.337V24.1068H130.031ZM147.306 20.6282C147.775 19.9128 148.046 19.0493 148.046 18.1118C148.046 15.5461 145.949 13.449 143.383 13.449H132.504V30.7185H144.271C147.306 30.7185 149.773 28.2514 149.773 25.2169C149.773 23.2926 148.786 21.615 147.306 20.6282ZM135.587 16.5329H143.408C144.271 16.5329 144.987 17.2483 144.987 18.1118C144.987 18.9753 144.271 19.6907 143.408 19.6907H135.587V16.5329ZM144.271 27.6347H135.587V22.7746H144.271C145.604 22.7746 146.689 23.8601 146.689 25.1923C146.689 26.5245 145.604 27.61 144.271 27.61V27.6347ZM165.819 13.449V22.0838C165.819 25.1429 163.327 27.6347 160.268 27.6347C157.209 27.6347 154.717 25.1429 154.717 22.0838V13.449H151.633V22.0838C151.633 26.8452 155.506 30.7185 160.268 30.7185C165.029 30.7185 168.902 26.8452 168.902 22.0838V13.449H165.819ZM174.449 30.7185V13.449H171.365V30.7185H174.449ZM182.087 27.6347C181.001 27.4866 180.138 26.6232 179.99 25.5377V13.4737H176.906V25.2416C176.906 26.1051 177.103 26.9192 177.473 27.6593C177.991 28.7449 178.88 29.633 179.965 30.1758C180.705 30.5458 181.519 30.7432 182.383 30.7432H191.141V27.6593L182.087 27.6347ZM193.602 13.449V30.7185H202.237C204.605 30.7185 206.751 29.7564 208.306 28.1774C208.478 28.0047 208.651 27.832 208.799 27.6593C210.082 26.1544 210.847 24.2055 210.847 22.0838C210.847 17.3223 206.974 13.4737 202.212 13.4737L193.602 13.449ZM196.661 16.5575H202.212C205.271 16.5575 207.763 19.0493 207.763 22.1084C207.763 25.1676 205.271 27.6593 202.212 27.6593H196.661V16.5575Z" fill="white"/>
<defs>
<linearGradient id="paint0_linear_1203_1121" x1="9.94792" y1="16.477" x2="22.572" y2="31.2051" gradientUnits="userSpaceOnUse">
<stop stop-color="#9D50F6"/>
<stop offset="1" stop-color="#00D1AB"/>
</linearGradient>
</defs>
</svg>
