<svg width="229" height="47" viewBox="0 0 229 47" fill="none" xmlns="http://www.w3.org/2000/svg">
<path fill-rule="evenodd" clip-rule="evenodd" d="M12.8562 7.7334H19.025V10.3279C22.3446 11.0714 25.1958 13.0549 27.067 15.7666L30.0684 14.9532L31.682 20.9073L29.2986 21.5532C29.3751 22.1306 29.4146 22.7196 29.4146 23.3179C29.4146 25.4879 28.8954 27.5366 27.9744 29.3466L30.7361 32.0926L26.3865 36.467L23.966 34.0602C22.5147 35.1243 20.8399 35.9014 19.025 36.3079V38.9024H12.8562V36.2309C11.2249 35.8221 9.71303 35.1122 8.38299 34.1638L5.03338 36.0977L1.94895 30.7553L4.26731 29.4168C3.32386 27.5897 2.79109 25.516 2.79109 23.3179C2.79109 22.6638 2.83827 22.0207 2.92941 21.3918L0 19.7005L3.08443 14.3581L5.24966 15.6082C7.05915 13.0655 9.73981 11.1859 12.8562 10.4049V7.7334Z" fill="url(#paint0_linear_267_1388)"/>
<rect x="7.14355" y="22.2539" width="17.0898" height="4.47324" fill="white"/>
<rect x="9.19897" y="20.0713" width="3.9933" height="3.42339" fill="white"/>
<rect x="18.0432" y="20.0713" width="3.9933" height="3.42339" fill="white"/>
<path d="M54.2307 29.3271C53.0582 29.1672 52.1255 28.2345 51.9656 27.0619V14.0306H48.6345V26.7421C48.6345 27.6748 48.8476 28.5543 49.2474 29.3537C49.807 30.5263 50.7664 31.4856 51.9389 32.0719C52.7384 32.4717 53.6178 32.6849 54.5505 32.6849H64.0109V29.3537L54.2307 29.3271ZM71.706 17.335H85.3236V14.0039H71.706C68.9345 14.0039 66.696 16.2691 66.696 19.0406V27.6215C66.696 30.393 68.9345 32.6582 71.706 32.6582H85.3236V29.3271H71.706C70.7733 29.3271 70.0005 28.5543 70.0005 27.6215V24.1039H81.9925V20.7728H70.0005V19.0406C70.0005 18.1079 70.7733 17.335 71.706 17.335ZM95.8531 17.335H105.18V14.0039H95.8531C90.7098 14.0039 86.5259 18.1878 86.5259 23.3311C86.5259 28.4743 90.7098 32.6582 95.8531 32.6582H105.18V22.425H95.8531V25.7561H101.849V29.3271H95.8531C92.5486 29.3271 89.8571 26.6355 89.8571 23.3311C89.8571 20.0266 92.5486 17.335 95.8531 17.335ZM116.501 14.0039C111.358 14.0039 107.174 18.1878 107.174 23.3311C107.174 28.4743 111.358 32.6582 116.501 32.6582C121.644 32.6582 125.828 28.4743 125.828 23.3311C125.828 18.1878 121.644 14.0039 116.501 14.0039ZM116.501 29.3271C113.196 29.3271 110.505 26.6355 110.505 23.3311C110.505 20.0266 113.196 17.335 116.501 17.335C119.805 17.335 122.497 20.0266 122.497 23.3311C122.497 26.6355 119.805 29.3271 116.501 29.3271ZM140.458 25.5163V22.1852H127.827V25.5163H140.458ZM159.118 21.7588C159.625 20.986 159.918 20.0532 159.918 19.0406C159.918 16.2691 157.653 14.0039 154.881 14.0039H143.129V32.6582H155.841C159.118 32.6582 161.783 29.9933 161.783 26.7155C161.783 24.6369 160.717 22.8247 159.118 21.7588ZM146.46 17.335H154.908C155.841 17.335 156.613 18.1079 156.613 19.0406C156.613 19.9733 155.841 20.7461 154.908 20.7461H146.46V17.335ZM155.841 29.3271H146.46V24.0772H155.841C157.28 24.0772 158.452 25.2498 158.452 26.6888C158.452 28.1279 157.28 29.3004 155.841 29.3004V29.3271ZM179.115 14.0039V23.3311C179.115 26.6355 176.424 29.3271 173.119 29.3271C169.815 29.3271 167.123 26.6355 167.123 23.3311V14.0039H163.792V23.3311C163.792 28.4743 167.976 32.6582 173.119 32.6582C178.263 32.6582 182.447 28.4743 182.447 23.3311V14.0039H179.115ZM188.437 32.6582V14.0039H185.106V32.6582H188.437ZM196.688 29.3271C195.516 29.1672 194.583 28.2345 194.423 27.0619V14.0306H191.092V26.7421C191.092 27.6748 191.305 28.5543 191.705 29.3537C192.264 30.5263 193.224 31.4856 194.396 32.0719C195.196 32.4717 196.075 32.6849 197.008 32.6849H206.468V29.3537L196.688 29.3271ZM209.127 14.0039V32.6582H218.454C221.012 32.6582 223.331 31.6189 225.01 29.9134C225.196 29.7268 225.383 29.5403 225.543 29.3537C226.928 27.7281 227.754 25.6229 227.754 23.3311C227.754 18.1878 223.571 14.0306 218.427 14.0306L209.127 14.0039ZM212.431 17.3617H218.427C221.732 17.3617 224.423 20.0532 224.423 23.3577C224.423 26.6622 221.732 29.3537 218.427 29.3537H212.431V17.3617Z" fill="black"/>
<defs>
<linearGradient id="paint0_linear_267_1388" x1="10.7459" y1="17.7984" x2="24.3823" y2="33.7079" gradientUnits="userSpaceOnUse">
<stop stop-color="#9D50F6"/>
<stop offset="1" stop-color="#00D1AB"/>
</linearGradient>
</defs>
</svg>
